<?xml version="1.0" encoding="utf-8"?>
<!-- Generator: Adobe Illustrator 24.0.1, SVG Export Plug-In . SVG Version: 6.00 Build 0)  -->
<svg version="1.1" id="Capa_1" xmlns="http://www.w3.org/2000/svg" xmlns:xlink="http://www.w3.org/1999/xlink" x="0px" y="0px"
	 viewBox="0 0 512 512" style="enable-background:new 0 0 512 512;" xml:space="preserve">
<style type="text/css">
	.st0{fill:#FFFFFF;}
</style>
<g>
	<path class="st0" d="M333.2,115C304.3,56,243.8,17,176,17C79,17,0,95.5,0,192c0,26.2,5.6,51.4,16.7,74.8L0.3,349
		c-2.1,10.5,7.1,19.7,17.6,17.7l83.3-16.5c11.2,5.3,22.8,9.4,34.7,12.2C109.2,235.9,205.1,117.1,333.2,115z"/>
	<path class="st0" d="M495.3,394.8c2.9-6.1,5.4-12.2,7.5-18.5h-0.5c37.4-109.9-41.3-225.4-157.6-231.1c0,0,0,0,0,0
		c-100-4.6-183.1,75.5-183.1,174.8c0,96.4,78.4,174.9,174.7,175c26.1,0,51.2-5.7,74.6-16.7c91.2,18,84.1,16.7,86.2,16.7
		c9.5,0,16.6-8.7,14.7-17.9L495.3,394.8z"/>
</g>
</svg>
